<?xml version="1.0" encoding="utf-8"?>
<!-- Generator: Adobe Illustrator 16.0.0, SVG Export Plug-In . SVG Version: 6.00 Build 0)  -->
<!DOCTYPE svg PUBLIC "-//W3C//DTD SVG 1.1//EN" "http://www.w3.org/Graphics/SVG/1.1/DTD/svg11.dtd">
<svg version="1.1" xmlns="http://www.w3.org/2000/svg" xmlns:xlink="http://www.w3.org/1999/xlink" x="0px" y="0px"
	 width="757.602px" height="756.352px" viewBox="0 0 757.602 756.352" enable-background="new 0 0 757.602 756.352"
	 xml:space="preserve">
<g id="Layer_1">
	<path fill-rule="evenodd" clip-rule="evenodd" fill="#E02437" d="M379.602,0c208.764,0,378,169.236,378,378s-169.236,378-378,378
		c-208.763,0-378-169.236-378-378S170.838,0,379.602,0z"/>
	<path fill="#E02437" d="M0,756.352l56.933-212.475l155.542,155.542L0,756.352z"/>
</g>
<g id="Layer_3">
	<g>
		<defs>
			<path id="SVGID_1_" d="M379.602,0c208.764,0,378,169.236,378,378s-169.236,378-378,378c-208.763,0-378-169.236-378-378
				S170.838,0,379.602,0z"/>
		</defs>
		<clipPath id="SVGID_2_">
			<use xlink:href="#SVGID_1_"  overflow="visible"/>
		</clipPath>
		<path clip-path="url(#SVGID_2_)" fill-rule="evenodd" clip-rule="evenodd" fill="#C22333" d="M547.602,775
			c-15.667,5-97-115.333-105-126c-82,26-152,6-152,6c41.333-47.333,17-116,17-116c-52.667,46-80-27.8-79-43c2.2-30.4,29-19,29-19
			c8,0.667,17.667,3.667,19-16c-5-28,25-125,69-157c-24.333-91.333-96-51-96-51c-25.667,18.333-37.667,50.333,14,99
			c17.333,31.333-15,46-15,46c-67.333,18.333-107-49-107-49c60.333,21.333,79,16,79,16c-143.667-78.333-72-189-72-189
			c65.333-106,174-31,174-31c31-48.667,81,13,81,13c-5.333-144.667,117-104,117-104c113,37,92,160,92,160c56-93,207-25,207-25
			l-12,568C807.602,757,563.269,770,547.602,775z"/>
	</g>
</g>
<g id="Layer_4" display="none">
	<g display="inline">
		<g>
			<path fill="#FFFFFF" d="M152.732,199.919c2.42-0.88,4.491-1.916,6.215-3.108c1.723-1.191,3.135-2.521,4.235-3.987
				c1.1-1.466,1.906-3.034,2.42-4.703c0.513-1.668,0.77-3.4,0.77-5.197c0-3.3-0.56-6.288-1.678-8.965
				c-1.119-2.676-2.906-4.95-5.362-6.82c-2.457-1.87-5.629-3.318-9.515-4.345c-3.887-1.026-8.599-1.54-14.135-1.54h-29.48v80.135
				h32.01c4.803,0,9.075-0.614,12.815-1.842c3.74-1.228,6.884-2.933,9.433-5.115c2.548-2.181,4.482-4.738,5.803-7.672
				c1.32-2.933,1.98-6.105,1.98-9.515c0-4.51-1.265-8.204-3.795-11.083C161.917,203.284,158.012,201.203,152.732,199.919z
				 M124.792,175.169h10.89c2.09,0,3.896,0.165,5.417,0.495c1.521,0.33,2.777,0.88,3.768,1.65c0.99,0.77,1.723,1.787,2.2,3.052
				c0.476,1.265,0.715,2.852,0.715,4.757c0,1.944-0.303,3.557-0.908,4.84c-0.605,1.284-1.485,2.292-2.64,3.025
				c-1.155,0.734-2.557,1.247-4.208,1.54c-1.65,0.294-3.502,0.44-5.555,0.44h-9.68V175.169z M149.377,220.654
				c-0.33,1.247-0.935,2.365-1.815,3.355c-0.88,0.99-2.1,1.797-3.657,2.42c-1.559,0.624-3.566,0.935-6.023,0.935h-13.09v-19.965
				h12.98c2.346,0,4.29,0.22,5.83,0.66s2.777,1.064,3.712,1.87c0.935,0.807,1.595,1.797,1.98,2.97
				c0.385,1.174,0.578,2.494,0.578,3.96C149.872,218.143,149.707,219.408,149.377,220.654z M194.201,211.744h4.73
				c1.43,0,2.539,0.22,3.327,0.66c0.788,0.44,1.476,1.174,2.062,2.2l13.31,23.265c1.356,2.347,3.593,3.52,6.71,3.52h16.83
				l-17.05-27.885c-0.807-1.32-1.751-2.438-2.833-3.355c-1.082-0.917-2.247-1.687-3.493-2.31c2.603-0.99,4.904-2.255,6.903-3.795
				c1.998-1.54,3.685-3.291,5.06-5.252c1.375-1.961,2.411-4.098,3.108-6.408c0.696-2.31,1.045-4.766,1.045-7.37
				c0-3.41-0.587-6.563-1.76-9.46c-1.174-2.896-3.052-5.408-5.637-7.535c-2.585-2.126-5.922-3.785-10.01-4.977
				c-4.089-1.191-9.029-1.788-14.822-1.788h-26.07v80.135h18.59V211.744z M194.201,175.169h7.48c4.803,0,8.351,0.99,10.643,2.97
				c2.291,1.98,3.438,4.73,3.438,8.25c0,1.76-0.257,3.401-0.77,4.922c-0.514,1.522-1.339,2.852-2.475,3.988
				c-1.137,1.137-2.595,2.026-4.373,2.667c-1.779,0.642-3.933,0.962-6.462,0.962h-7.48V175.169z M268.01,161.254h-18.7v80.135h18.7
				V161.254z M330.6,207.152c-1.027-2.365-2.375-4.373-4.043-6.022s-3.575-3.006-5.72-4.07c-2.145-1.063-4.336-1.988-6.573-2.777
				c-2.237-0.788-4.427-1.503-6.572-2.145c-2.145-0.641-4.052-1.348-5.72-2.118c-1.669-0.77-3.017-1.686-4.043-2.75
				c-1.027-1.063-1.54-2.401-1.54-4.015c0-2.53,0.853-4.538,2.558-6.022c1.705-1.485,4.299-2.228,7.783-2.228
				c2.016,0,3.813,0.266,5.39,0.797c1.577,0.532,2.979,1.127,4.208,1.788c1.229,0.66,2.328,1.256,3.3,1.788
				c0.971,0.532,1.878,0.797,2.723,0.797c0.953,0,1.732-0.22,2.337-0.66s1.182-1.1,1.732-1.98l4.62-8.635
				c-1.43-1.32-3.053-2.503-4.868-3.548s-3.768-1.943-5.857-2.695c-2.09-0.751-4.299-1.32-6.627-1.705
				c-2.329-0.385-4.722-0.578-7.178-0.578c-4.4,0-8.305,0.67-11.715,2.008c-3.41,1.339-6.289,3.126-8.635,5.362
				c-2.347,2.237-4.125,4.785-5.335,7.645c-1.21,2.86-1.815,5.794-1.815,8.8c0,3.74,0.513,6.884,1.54,9.432
				c1.026,2.549,2.374,4.675,4.042,6.38c1.668,1.705,3.565,3.08,5.693,4.125c2.126,1.045,4.308,1.925,6.545,2.64
				c2.236,0.715,4.418,1.367,6.545,1.953c2.126,0.587,4.023,1.265,5.692,2.035c1.668,0.77,3.016,1.742,4.042,2.915
				c1.026,1.174,1.54,2.695,1.54,4.565c0,3.227-0.935,5.583-2.805,7.067c-1.87,1.485-4.492,2.228-7.865,2.228
				c-2.494,0-4.657-0.348-6.49-1.045c-1.833-0.696-3.456-1.466-4.867-2.31c-1.412-0.843-2.677-1.613-3.795-2.31
				c-1.119-0.696-2.227-1.045-3.327-1.045c-0.844,0-1.632,0.202-2.365,0.605c-0.734,0.404-1.302,0.935-1.705,1.595l-5.5,8.69
				c1.576,1.577,3.428,3.007,5.555,4.29c2.126,1.284,4.4,2.393,6.82,3.328c2.42,0.935,4.923,1.66,7.508,2.172
				c2.585,0.513,5.124,0.77,7.617,0.77c4.546,0,8.608-0.688,12.183-2.062c3.575-1.375,6.581-3.263,9.02-5.665
				c2.438-2.401,4.298-5.216,5.583-8.443c1.283-3.226,1.925-6.691,1.925-10.395C332.139,212.368,331.625,209.517,330.6,207.152z
				 M357.329,241.389h18.59v-65.395h22.55v-14.74h-63.69v14.74h22.55V241.389z M439.279,242.269c6.232,0,11.907-1.045,17.022-3.135
				s9.487-4.978,13.117-8.663s6.443-8.021,8.442-13.007c1.998-4.986,2.998-10.376,2.998-16.17c0-5.756-1-11.128-2.998-16.115
				c-1.999-4.986-4.812-9.313-8.442-12.98c-3.63-3.666-8.002-6.554-13.117-8.663c-5.115-2.108-10.79-3.163-17.022-3.163
				c-6.234,0-11.917,1.045-17.05,3.135c-5.135,2.09-9.525,4.969-13.173,8.635c-3.649,3.667-6.472,7.994-8.47,12.98
				c-1.999,4.987-2.998,10.377-2.998,16.17s0.999,11.184,2.998,16.17c1.998,4.987,4.82,9.322,8.47,13.007
				c3.647,3.685,8.038,6.573,13.173,8.663C427.362,241.224,433.044,242.269,439.279,242.269z M416.619,201.294
				c0-3.96,0.513-7.526,1.54-10.698c1.026-3.171,2.502-5.857,4.428-8.058c1.925-2.2,4.29-3.886,7.095-5.06
				c2.805-1.173,6.004-1.76,9.598-1.76c3.556,0,6.728,0.587,9.515,1.76c2.786,1.174,5.143,2.86,7.067,5.06
				c1.925,2.2,3.4,4.887,4.428,8.058c1.026,3.172,1.54,6.737,1.54,10.698c0,3.997-0.514,7.581-1.54,10.752
				c-1.027,3.172-2.503,5.857-4.428,8.058c-1.925,2.2-4.281,3.877-7.067,5.032c-2.787,1.155-5.959,1.732-9.515,1.732
				c-3.594,0-6.793-0.577-9.598-1.732c-2.805-1.155-5.17-2.833-7.095-5.032c-1.926-2.2-3.401-4.886-4.428-8.058
				C417.131,208.875,416.619,205.291,416.619,201.294z M535.307,226.539h-29.7v-65.285h-18.59v80.135h48.29V226.539z
				 M152.732,294.919c2.42-0.88,4.491-1.916,6.215-3.108c1.723-1.191,3.135-2.521,4.235-3.987c1.1-1.466,1.906-3.034,2.42-4.703
				c0.513-1.668,0.77-3.4,0.77-5.197c0-3.3-0.56-6.288-1.678-8.965c-1.119-2.676-2.906-4.95-5.362-6.82
				c-2.457-1.87-5.629-3.318-9.515-4.345c-3.887-1.026-8.599-1.54-14.135-1.54h-29.48v80.135h32.01
				c4.803,0,9.075-0.614,12.815-1.842c3.74-1.228,6.884-2.933,9.433-5.115c2.548-2.181,4.482-4.738,5.803-7.672
				c1.32-2.933,1.98-6.105,1.98-9.515c0-4.51-1.265-8.204-3.795-11.083C161.917,298.284,158.012,296.203,152.732,294.919z
				 M124.792,270.169h10.89c2.09,0,3.896,0.165,5.417,0.495c1.521,0.33,2.777,0.88,3.768,1.65c0.99,0.77,1.723,1.787,2.2,3.052
				c0.476,1.265,0.715,2.852,0.715,4.757c0,1.944-0.303,3.557-0.908,4.84c-0.605,1.284-1.485,2.292-2.64,3.025
				c-1.155,0.734-2.557,1.247-4.208,1.54c-1.65,0.294-3.502,0.44-5.555,0.44h-9.68V270.169z M149.377,315.654
				c-0.33,1.247-0.935,2.365-1.815,3.355c-0.88,0.99-2.1,1.797-3.657,2.42c-1.559,0.624-3.566,0.935-6.023,0.935h-13.09v-19.965
				h12.98c2.346,0,4.29,0.22,5.83,0.66s2.777,1.064,3.712,1.87c0.935,0.807,1.595,1.797,1.98,2.97
				c0.385,1.174,0.578,2.494,0.578,3.96C149.872,313.143,149.707,314.408,149.377,315.654z M221.289,305.149
				c-1.082-0.917-2.247-1.687-3.493-2.31c2.603-0.99,4.904-2.255,6.903-3.795c1.998-1.54,3.685-3.291,5.06-5.252
				c1.375-1.961,2.411-4.098,3.108-6.408c0.696-2.31,1.045-4.766,1.045-7.37c0-3.41-0.587-6.563-1.76-9.46
				c-1.174-2.896-3.052-5.408-5.637-7.535c-2.585-2.126-5.922-3.785-10.01-4.977c-4.089-1.191-9.029-1.788-14.822-1.788h-26.07
				v80.135h18.59v-29.645h4.73c1.43,0,2.539,0.22,3.327,0.66c0.788,0.44,1.476,1.174,2.062,2.2l13.31,23.265
				c1.356,2.347,3.593,3.52,6.71,3.52h16.83l-17.05-27.885C223.314,307.184,222.37,306.066,221.289,305.149z M214.991,286.312
				c-0.514,1.522-1.339,2.852-2.475,3.988c-1.137,1.137-2.595,2.026-4.373,2.667c-1.779,0.642-3.933,0.962-6.462,0.962h-7.48v-23.76
				h7.48c4.803,0,8.351,0.99,10.643,2.97c2.291,1.98,3.438,4.73,3.438,8.25C215.761,283.149,215.504,284.791,214.991,286.312z
				 M312.561,267.199c-3.63-3.666-8.002-6.554-13.118-8.663c-5.115-2.108-10.79-3.163-17.022-3.163
				c-6.234,0-11.917,1.045-17.05,3.135c-5.134,2.09-9.525,4.969-13.173,8.635c-3.649,3.667-6.472,7.994-8.47,12.98
				c-1.999,4.987-2.998,10.377-2.998,16.17s0.999,11.184,2.998,16.17c1.998,4.987,4.821,9.322,8.47,13.007
				c3.648,3.685,8.039,6.573,13.173,8.663c5.133,2.09,10.816,3.135,17.05,3.135c6.233,0,11.908-1.045,17.022-3.135
				c5.115-2.09,9.488-4.978,13.118-8.663s6.443-8.021,8.442-13.007c1.998-4.986,2.998-10.376,2.998-16.17
				c0-5.756-1-11.128-2.998-16.115C319.004,275.193,316.191,270.866,312.561,267.199z M303.431,307.047
				c-1.027,3.172-2.503,5.857-4.428,8.058c-1.925,2.2-4.281,3.877-7.067,5.032c-2.787,1.155-5.959,1.732-9.515,1.732
				c-3.594,0-6.792-0.577-9.598-1.732c-2.805-1.155-5.17-2.833-7.095-5.032c-1.925-2.2-3.401-4.886-4.428-8.058
				c-1.027-3.171-1.54-6.756-1.54-10.752c0-3.96,0.513-7.526,1.54-10.698c1.026-3.171,2.502-5.857,4.428-8.058
				c1.925-2.2,4.29-3.886,7.095-5.06c2.805-1.173,6.004-1.76,9.598-1.76c3.556,0,6.728,0.587,9.515,1.76
				c2.786,1.174,5.143,2.86,7.067,5.06c1.925,2.2,3.4,4.887,4.428,8.058c1.026,3.172,1.54,6.737,1.54,10.698
				C304.971,300.291,304.457,303.875,303.431,307.047z M385.379,298.659c0,1.284,0.036,2.649,0.11,4.098
				c0.073,1.449,0.183,2.942,0.33,4.482l-38.06-48.125c-0.514-0.623-0.972-1.118-1.375-1.485c-0.404-0.366-0.825-0.651-1.265-0.853
				c-0.44-0.201-0.935-0.339-1.485-0.413c-0.55-0.073-1.229-0.11-2.035-0.11h-9.79v80.135h16.39v-42.955
				c0-1.173-0.037-2.428-0.11-3.767c-0.074-1.338-0.165-2.704-0.275-4.098l37.786,47.74c0.916,1.174,1.869,1.98,2.859,2.42
				c0.99,0.44,2.2,0.66,3.63,0.66h9.681v-80.135h-16.391V298.659z M411.12,336.389h18.699v-80.135H411.12V336.389z M439.168,336.389
				h51.59v-14.3h-32.89v-19.085h25.189v-13.75h-25.189v-18.7h32.89v-14.3h-51.59V336.389z M551.257,302.152
				c-1.027-2.365-2.375-4.373-4.043-6.022c-1.669-1.65-3.575-3.006-5.72-4.07c-2.146-1.063-4.337-1.988-6.572-2.777
				c-2.237-0.788-4.428-1.503-6.573-2.145c-2.145-0.641-4.052-1.348-5.72-2.118c-1.669-0.77-3.017-1.686-4.043-2.75
				c-1.026-1.063-1.539-2.401-1.539-4.015c0-2.53,0.852-4.538,2.557-6.022c1.705-1.485,4.299-2.228,7.783-2.228
				c2.016,0,3.812,0.266,5.39,0.797c1.576,0.532,2.979,1.127,4.208,1.788c1.228,0.66,2.327,1.256,3.3,1.788
				c0.971,0.532,1.878,0.797,2.723,0.797c0.952,0,1.732-0.22,2.337-0.66c0.605-0.44,1.183-1.1,1.732-1.98l4.62-8.635
				c-1.43-1.32-3.053-2.503-4.867-3.548c-1.815-1.045-3.768-1.943-5.857-2.695c-2.09-0.751-4.3-1.32-6.628-1.705
				c-2.329-0.385-4.721-0.578-7.178-0.578c-4.399,0-8.305,0.67-11.715,2.008c-3.41,1.339-6.289,3.126-8.635,5.362
				c-2.347,2.237-4.125,4.785-5.335,7.645s-1.815,5.794-1.815,8.8c0,3.74,0.514,6.884,1.54,9.432
				c1.026,2.549,2.374,4.675,4.043,6.38c1.668,1.705,3.565,3.08,5.692,4.125c2.126,1.045,4.308,1.925,6.545,2.64
				c2.236,0.715,4.418,1.367,6.545,1.953c2.126,0.587,4.023,1.265,5.692,2.035c1.668,0.77,3.016,1.742,4.043,2.915
				c1.026,1.174,1.54,2.695,1.54,4.565c0,3.227-0.936,5.583-2.805,7.067c-1.87,1.485-4.492,2.228-7.865,2.228
				c-2.494,0-4.657-0.348-6.49-1.045c-1.834-0.696-3.456-1.466-4.867-2.31c-1.412-0.843-2.678-1.613-3.795-2.31
				c-1.119-0.696-2.228-1.045-3.328-1.045c-0.844,0-1.632,0.202-2.365,0.605c-0.733,0.404-1.302,0.935-1.705,1.595l-5.5,8.69
				c1.576,1.577,3.429,3.007,5.556,4.29c2.126,1.284,4.399,2.393,6.819,3.328c2.421,0.935,4.923,1.66,7.508,2.172
				c2.585,0.513,5.124,0.77,7.617,0.77c4.547,0,8.608-0.688,12.183-2.062c3.575-1.375,6.581-3.263,9.021-5.665
				c2.438-2.401,4.299-5.216,5.582-8.443c1.283-3.226,1.926-6.691,1.926-10.395C552.797,307.368,552.283,304.517,551.257,302.152z"
				/>
		</g>
	</g>
</g>
</svg>
